<?xml version="1.0" encoding="UTF-8"?>
<svg version="1.1" xmlns="http://www.w3.org/2000/svg" width="512" height="512">
<path d="M0 0 C3.35562577 1.23471097 5.18964681 2.98491214 7.7578125 5.46875 C8.72564144 6.38646482 9.69575467 7.30177577 10.66796875 8.21484375 C11.1592627 8.67745605 11.65055664 9.14006836 12.15673828 9.61669922 C14.42105403 11.69076151 16.80312928 13.60732392 19.1953125 15.53125 C22.77109719 18.41723793 26.23682568 21.37319804 29.6328125 24.46875 C33.05020622 27.58333668 36.538036 30.5606162 40.1328125 33.46875 C44.59557463 37.07907442 48.86000783 40.85302929 53.1015625 44.71875 C55.7212606 47.04737053 58.4079656 49.26437947 61.1328125 51.46875 C65.59557463 55.07907442 69.86000783 58.85302929 74.1015625 62.71875 C76.7212606 65.04737053 79.4079656 67.26437947 82.1328125 69.46875 C86.66589197 73.13747109 91.02017449 76.9572623 95.328125 80.88671875 C97.43744 82.79225247 99.58292138 84.63887173 101.7578125 86.46875 C102.7065625 87.29375 103.6553125 88.11875 104.6328125 88.96875 C104.6328125 89.29875 104.6328125 89.62875 104.6328125 89.96875 C89.7828125 89.96875 74.9328125 89.96875 59.6328125 89.96875 C59.9628125 136.82875 60.2928125 183.68875 60.6328125 231.96875 C70.65092109 220.43792392 70.65092109 220.43792392 80.390625 208.7109375 C83.38936793 205.04348535 86.45294387 201.43294467 89.53198242 197.83276367 C91.80870063 195.16222174 94.04064348 192.4725927 96.19140625 189.69921875 C97.36896484 188.19294922 97.36896484 188.19294922 98.5703125 186.65625 C99.60478516 185.30080078 99.60478516 185.30080078 100.66015625 183.91796875 C102.6328125 181.96875 102.6328125 181.96875 106.6328125 181.96875 C108.13745117 183.17114258 108.13745117 183.17114258 109.55078125 184.86328125 C110.07816895 185.48348145 110.60555664 186.10368164 111.14892578 186.74267578 C111.7004834 187.41540527 112.25204102 188.08813477 112.8203125 188.78125 C113.39765137 189.46687012 113.97499023 190.15249023 114.56982422 190.85888672 C116.27044955 192.88515364 117.95431893 194.92413341 119.6328125 196.96875 C120.44621094 197.95488281 121.25960938 198.94101563 122.09765625 199.95703125 C123.5334669 201.70960302 124.96449627 203.46610322 126.390625 205.2265625 C128.93534933 208.33875148 131.52899475 211.40601497 134.1328125 214.46875 C138.25395198 219.31823722 142.30272862 224.22036123 146.3203125 229.15625 C148.89427642 232.28674666 151.50850336 235.38047461 154.1328125 238.46875 C158.24317632 243.30580798 162.28522288 248.19195626 166.28515625 253.12109375 C168.04822465 255.25965758 169.82886528 257.37253218 171.63671875 259.47265625 C172.14460938 260.06433594 172.6525 260.65601563 173.17578125 261.265625 C174.17287807 262.42420537 175.1740576 263.57928716 176.1796875 264.73046875 C179.6328125 268.74757119 179.6328125 268.74757119 179.6328125 270.96875 C169.7328125 270.96875 159.8328125 270.96875 149.6328125 270.96875 C149.60535276 286.62462359 149.60691137 302.27963265 149.66127872 317.93538761 C149.68559625 325.20502085 149.69693691 332.47423771 149.67749023 339.74389648 C149.66056906 346.08186501 149.6682387 352.41925104 149.70516008 358.75714296 C149.72385082 362.11173606 149.73041495 365.46534458 149.70750618 368.81993294 C149.68808702 372.56976009 149.71213084 376.31698203 149.74633789 380.06665039 C149.7305217 381.17292282 149.71470551 382.27919525 149.69841003 383.41899109 C149.79398037 388.86457909 150.11083975 392.09861417 154.05101013 396.05027771 C155.23542487 397.03466947 156.42846763 398.00884436 157.6328125 398.96875 C159.03786439 400.6313114 160.41596479 402.31727043 161.7578125 404.03125 C166.45181642 409.86660419 171.51745152 415.29991508 176.63671875 420.76171875 C181.00271543 425.42066319 185.16457083 430.23945803 189.296875 435.10546875 C194.36487302 441.06207689 199.47742582 446.94370812 204.8203125 452.65625 C208.38610362 456.46874544 211.80382036 460.32909558 215.0703125 464.40625 C219.65593545 470.11948515 224.63026792 475.42076937 229.63671875 480.76171875 C234.09919246 485.52361359 238.34385406 490.45755735 242.578125 495.421875 C243.37754517 496.35773438 243.37754517 496.35773438 244.19311523 497.3125 C245.25435262 498.55573203 246.31384571 499.80045575 247.37133789 501.046875 C249.511086 503.55672845 251.62825285 505.96431847 253.99609375 508.265625 C255.6328125 509.96875 255.6328125 509.96875 255.6328125 511.96875 C86.6728125 511.96875 -82.2871875 511.96875 -256.3671875 511.96875 C-254.31075584 507.85588668 -251.80236289 505.00184332 -248.6796875 501.71875 C-247.58133101 500.54622848 -246.48367026 499.37305481 -245.38671875 498.19921875 C-244.86029785 497.6376709 -244.33387695 497.07612305 -243.79150391 496.49755859 C-239.95227879 492.37667624 -236.31317839 488.08155591 -232.6640625 483.79296875 C-226.83904783 476.95548618 -220.9221388 470.2357908 -214.82421875 463.640625 C-212.1986971 460.78552674 -209.6405091 457.88109756 -207.1015625 454.94921875 C-205.09454212 452.65741845 -203.04315899 450.40878248 -200.9921875 448.15625 C-197.91971977 444.75791448 -194.98276128 441.29284477 -192.1171875 437.71875 C-187.45659885 431.95433772 -182.42939469 426.58023047 -177.36328125 421.17578125 C-173.44817989 416.99798611 -169.69469897 412.69755656 -165.97949219 408.34179688 C-164.92241908 407.10246978 -163.86486708 405.86355102 -162.80688477 404.625 C-161.74564738 403.38176797 -160.68615429 402.13704425 -159.62866211 400.890625 C-158.89015015 400.024375 -158.89015015 400.024375 -158.13671875 399.140625 C-157.69948486 398.6259668 -157.26225098 398.11130859 -156.81176758 397.58105469 C-155.3671875 395.96875 -155.3671875 395.96875 -153.30933762 394.18514633 C-150.97249571 391.51832475 -150.86270099 390.3874999 -150.84820557 386.894104 C-150.83429276 385.87049271 -150.82037994 384.84688141 -150.80604553 383.79225159 C-150.8110759 382.67519333 -150.81610626 381.55813507 -150.82128906 380.40722656 C-150.80578255 378.63607735 -150.80578255 378.63607735 -150.78996277 376.82914734 C-150.76553048 373.595862 -150.758698 370.36311353 -150.75968266 367.12975407 C-150.75655334 363.74907427 -150.73093486 360.36856672 -150.70770264 356.98797607 C-150.66714024 350.58844628 -150.64680146 344.18901838 -150.63372874 337.78937984 C-150.61785943 330.50275633 -150.57944419 323.21630626 -150.53913546 315.92978334 C-150.45673323 300.94280507 -150.40561953 285.95591761 -150.3671875 270.96875 C-160.2671875 270.96875 -170.1671875 270.96875 -180.3671875 270.96875 C-178.31733834 266.86905168 -175.79900442 263.80827215 -172.8046875 260.40625 C-171.70995111 259.14668997 -170.61620952 257.88626466 -169.5234375 256.625 C-168.98460937 256.00367188 -168.44578125 255.38234375 -167.890625 254.7421875 C-165.8193478 252.33100841 -163.80797741 249.87407091 -161.8046875 247.40625 C-158.53940447 243.38516909 -155.22160906 239.41529838 -151.8671875 235.46875 C-148.49435161 231.49971457 -145.15542105 227.50857979 -141.8671875 223.46875 C-138.11930952 218.8642142 -134.29735306 214.32855809 -130.453125 209.8046875 C-126.81938515 205.52134052 -123.26056313 201.180756 -119.71484375 196.82421875 C-115.32715116 191.48744123 -110.84333738 186.23136359 -106.3671875 180.96875 C-102.00995268 182.55225814 -99.54427201 185.94814007 -96.6796875 189.40625 C-96.14931885 190.03587646 -95.6189502 190.66550293 -95.07250977 191.31420898 C-91.21827351 195.90291752 -87.42209967 200.53946395 -83.64453125 205.19140625 C-80.26069596 209.31817622 -76.79838122 213.37660922 -73.3359375 217.4375 C-69.2977567 222.2408098 -65.34090924 227.11197898 -61.3671875 231.96875 C-60.8721875 161.67875 -60.8721875 161.67875 -60.3671875 89.96875 C-75.2171875 89.96875 -90.0671875 89.96875 -105.3671875 89.96875 C-101.84963668 85.74768901 -99.32846547 82.91031367 -95.1796875 79.65625 C-91.47056721 76.69193298 -87.87221627 73.67191027 -84.3671875 70.46875 C-80.06726959 66.54983748 -75.60799203 62.87704131 -71.0859375 59.21875 C-68.44571021 57.03373431 -65.8998903 54.77703609 -63.3671875 52.46875 C-59.06726959 48.54983748 -54.60799203 44.87704131 -50.0859375 41.21875 C-47.44571021 39.03373431 -44.8998903 36.77703609 -42.3671875 34.46875 C-38.06726959 30.54983748 -33.60799203 26.87704131 -29.0859375 23.21875 C-25.59874614 20.33279853 -22.26959856 17.29174889 -18.92578125 14.2421875 C-15.28753626 11.0094263 -11.50938987 7.96061896 -7.71484375 4.9140625 C-5.38781723 3.10940501 -5.38781723 3.10940501 -3.86328125 1.1484375 C-2.3671875 -0.03125 -2.3671875 -0.03125 0 0 Z " fill="#FF4547" transform="translate(256.3671875,0.03125)"/>
<path d="M0 0 C0 168.96 0 337.92 0 512 C-84.48 512 -168.96 512 -256 512 C-253.94356834 507.88713668 -251.43517539 505.03309332 -248.3125 501.75 C-247.21414351 500.57747848 -246.11648276 499.40430481 -245.01953125 498.23046875 C-244.49311035 497.6689209 -243.96668945 497.10737305 -243.42431641 496.52880859 C-239.58509129 492.40792624 -235.94599089 488.11280591 -232.296875 483.82421875 C-226.47186033 476.98673618 -220.5549513 470.2670408 -214.45703125 463.671875 C-211.8315096 460.81677674 -209.2733216 457.91234756 -206.734375 454.98046875 C-204.72735462 452.68866845 -202.67597149 450.44003248 -200.625 448.1875 C-197.55253227 444.78916448 -194.61557378 441.32409477 -191.75 437.75 C-187.08941135 431.98558772 -182.06220719 426.61148047 -176.99609375 421.20703125 C-173.08099239 417.02923611 -169.32751147 412.72880656 -165.61230469 408.37304688 C-164.55523158 407.13371978 -163.49767958 405.89480102 -162.43969727 404.65625 C-161.37845988 403.41301797 -160.31896679 402.16829425 -159.26147461 400.921875 C-158.52296265 400.055625 -158.52296265 400.055625 -157.76953125 399.171875 C-157.33229736 398.6572168 -156.89506348 398.14255859 -156.44458008 397.61230469 C-155 396 -155 396 -152.94215012 394.21639633 C-150.60530821 391.54957475 -150.49551349 390.4187499 -150.48101807 386.925354 C-150.46710526 385.90174271 -150.45319244 384.87813141 -150.43885803 383.82350159 C-150.4438884 382.70644333 -150.44891876 381.58938507 -150.45410156 380.43847656 C-150.43859505 378.66732735 -150.43859505 378.66732735 -150.42277527 376.86039734 C-150.39834298 373.627112 -150.3915105 370.39436353 -150.39249516 367.16100407 C-150.38936584 363.78032427 -150.36374736 360.39981672 -150.34051514 357.01922607 C-150.29995274 350.61969628 -150.27961396 344.22026838 -150.26654124 337.82062984 C-150.25067193 330.53400633 -150.21225669 323.24755626 -150.17194796 315.96103334 C-150.08954573 300.97405507 -150.03843203 285.98716761 -150 271 C-159.9 271 -169.8 271 -180 271 C-177.95015084 266.90030168 -175.43181692 263.83952215 -172.4375 260.4375 C-171.34276361 259.17793997 -170.24902202 257.91751466 -169.15625 256.65625 C-168.61742187 256.03492188 -168.07859375 255.41359375 -167.5234375 254.7734375 C-165.4521603 252.36225841 -163.44078991 249.90532091 -161.4375 247.4375 C-158.17221697 243.41641909 -154.85442156 239.44654838 -151.5 235.5 C-148.12716411 231.53096457 -144.78823355 227.53982979 -141.5 223.5 C-137.75212202 218.8954642 -133.93016556 214.35980809 -130.0859375 209.8359375 C-126.45219765 205.55259052 -122.89337563 201.212006 -119.34765625 196.85546875 C-114.95996366 191.51869123 -110.47614988 186.26261359 -106 181 C-101.64276518 182.58350814 -99.17708451 185.97939007 -96.3125 189.4375 C-95.78213135 190.06712646 -95.2517627 190.69675293 -94.70532227 191.34545898 C-90.85108601 195.93416752 -87.05491217 200.57071395 -83.27734375 205.22265625 C-79.89350846 209.34942622 -76.43119372 213.40785922 -72.96875 217.46875 C-68.9305692 222.2720598 -64.97372174 227.14322898 -61 232 C-60.505 161.71 -60.505 161.71 -60 90 C-74.85 90 -89.7 90 -105 90 C-101.48244918 85.77893901 -98.96127797 82.94156367 -94.8125 79.6875 C-91.10337971 76.72318298 -87.50502877 73.70316027 -84 70.5 C-79.70008209 66.58108748 -75.24080453 62.90829131 -70.71875 59.25 C-68.07852271 57.06498431 -65.5327028 54.80828609 -63 52.5 C-58.70008209 48.58108748 -54.24080453 44.90829131 -49.71875 41.25 C-47.07852271 39.06498431 -44.5327028 36.80828609 -42 34.5 C-37.70008209 30.58108748 -33.24080453 26.90829131 -28.71875 23.25 C-25.23155864 20.36404853 -21.90241106 17.32299889 -18.55859375 14.2734375 C-14.92034876 11.0406763 -11.14220237 7.99186896 -7.34765625 4.9453125 C-5.03927203 3.10675749 -5.03927203 3.10675749 -3.30859375 1.2421875 C-2 0 -2 0 0 0 Z " fill="#FF7565" transform="translate(256,0)"/>
<path d="M0 0 C4.35723482 1.58350814 6.82291549 4.97939007 9.6875 8.4375 C10.21786865 9.06712646 10.7482373 9.69675293 11.29467773 10.34545898 C15.14891399 14.93416752 18.94508783 19.57071395 22.72265625 24.22265625 C25.7362913 27.89794702 28.81412607 31.51674063 31.89233398 35.13793945 C35.76017006 39.69633845 39.55142098 44.31242583 43.3203125 48.953125 C44.83746979 50.87015567 44.83746979 50.87015567 46 52 C46.12309427 54.01956842 46.17530214 56.04346683 46.20100403 58.06661987 C46.21032524 58.70743693 46.21964646 59.34825398 46.22925013 60.00848973 C46.25917252 62.17212981 46.28165491 64.33578052 46.30395508 66.49951172 C46.32330618 68.04516938 46.34293031 69.59082364 46.36280823 71.13647461 C46.53697784 85.31765026 46.62997666 99.49991574 46.70387745 113.68192863 C46.75957597 124.15211134 46.85391011 134.62042476 46.99953538 145.08975017 C47.09859297 152.46236313 47.1507149 159.83446842 47.16973227 167.20771611 C47.18241752 171.60297752 47.21513746 175.99582466 47.29932594 180.39034653 C47.93227456 214.88200101 47.93227456 214.88200101 35.42286682 229.3059597 C33.33100463 231.79649416 31.7373047 234.46942324 30.07421875 237.26171875 C29.51347656 238.15955078 28.95273438 239.05738281 28.375 239.98242188 C27.818125 240.87509766 27.26125 241.76777344 26.6875 242.6875 C25.41016897 244.73308086 24.13282483 246.77865354 22.85546875 248.82421875 C22.21786621 249.84563965 21.58026367 250.86706055 20.92333984 251.91943359 C17.78410777 256.94746487 14.64192849 261.97365341 11.5 267 C10.24998536 268.99999085 8.99998538 270.99999086 7.75 273 C5.25 277 2.75 281 0.25 285 C-0.3697168 285.99161133 -0.98943359 286.98322266 -1.62792969 288.00488281 C-2.86792962 289.98875333 -4.10816095 291.97247923 -5.34863281 293.95605469 C-8.62862495 299.20162399 -11.90361387 304.45023733 -15.171875 309.703125 C-16.19571289 311.34667969 -16.19571289 311.34667969 -17.24023438 313.0234375 C-18.55030717 315.12668362 -19.8589704 317.23080859 -21.16601562 319.3359375 C-21.75576172 320.28210938 -22.34550781 321.22828125 -22.953125 322.203125 C-23.47036133 323.03489258 -23.98759766 323.86666016 -24.52050781 324.72363281 C-25.00874023 325.47483398 -25.49697266 326.22603516 -26 327 C-26.4233302 327.69702908 -26.8466604 328.39405815 -27.28281879 329.11220932 C-29 331 -29 331 -31.25884533 331.49219131 C-32.14837556 331.48850414 -33.03790579 331.48481697 -33.95439148 331.48101807 C-35.48774643 331.48926605 -35.48774643 331.48926605 -37.05207825 331.49768066 C-38.73305855 331.47610901 -38.73305855 331.47610901 -40.44799805 331.45410156 C-41.62861816 331.45468567 -42.80923828 331.45526978 -44.02563477 331.45587158 C-47.26323299 331.45356077 -50.50014144 331.43348842 -53.737602 331.40557575 C-57.12083936 331.38058611 -60.50408998 331.37822205 -63.8874054 331.37347412 C-70.29418493 331.36103708 -76.70069174 331.32820593 -83.10735112 331.28807616 C-90.4010765 331.24338085 -97.69481484 331.2213771 -104.98864305 331.20129442 C-119.99258071 331.1594737 -134.99626309 331.08910781 -150 331 C-148.11476013 326.92125583 -145.38216961 323.97736453 -142.3125 320.75 C-141.21414351 319.57747848 -140.11648276 318.40430481 -139.01953125 317.23046875 C-138.49311035 316.6689209 -137.96668945 316.10737305 -137.42431641 315.52880859 C-133.58509129 311.40792624 -129.94599089 307.11280591 -126.296875 302.82421875 C-120.47186033 295.98673618 -114.5549513 289.2670408 -108.45703125 282.671875 C-105.8315096 279.81677674 -103.2733216 276.91234756 -100.734375 273.98046875 C-98.72735462 271.68866845 -96.67597149 269.44003248 -94.625 267.1875 C-91.55253227 263.78916448 -88.61557378 260.32409477 -85.75 256.75 C-81.08941135 250.98558772 -76.06220719 245.61148047 -70.99609375 240.20703125 C-67.08099239 236.02923611 -63.32751147 231.72880656 -59.61230469 227.37304688 C-58.55523158 226.13371978 -57.49767958 224.89480102 -56.43969727 223.65625 C-55.37845988 222.41301797 -54.31896679 221.16829425 -53.26147461 219.921875 C-52.7691333 219.344375 -52.27679199 218.766875 -51.76953125 218.171875 C-51.33229736 217.6572168 -50.89506348 217.14255859 -50.44458008 216.61230469 C-49 215 -49 215 -46.94215012 213.21639633 C-44.60530821 210.54957475 -44.49551349 209.4187499 -44.48101807 205.925354 C-44.46710526 204.90174271 -44.45319244 203.87813141 -44.43885803 202.82350159 C-44.44640358 201.1479142 -44.44640358 201.1479142 -44.45410156 199.43847656 C-44.43859505 197.66732735 -44.43859505 197.66732735 -44.42277527 195.86039734 C-44.39834298 192.627112 -44.3915105 189.39436353 -44.39249516 186.16100407 C-44.38936584 182.78032427 -44.36374736 179.39981672 -44.34051514 176.01922607 C-44.29995274 169.61969628 -44.27961396 163.22026838 -44.26654124 156.82062984 C-44.25067193 149.53400633 -44.21225669 142.24755626 -44.17194796 134.96103334 C-44.08954573 119.97405507 -44.03843203 104.98716761 -44 90 C-53.9 90 -63.8 90 -74 90 C-71.95015084 85.90030168 -69.43181692 82.83952215 -66.4375 79.4375 C-65.34276361 78.17793997 -64.24902202 76.91751466 -63.15625 75.65625 C-62.61742188 75.03492188 -62.07859375 74.41359375 -61.5234375 73.7734375 C-59.4521603 71.36225841 -57.44078991 68.90532091 -55.4375 66.4375 C-52.17221697 62.41641909 -48.85442156 58.44654838 -45.5 54.5 C-42.12716411 50.53096457 -38.78823355 46.53982979 -35.5 42.5 C-31.75212202 37.8954642 -27.93016556 33.35980809 -24.0859375 28.8359375 C-20.45219765 24.55259052 -16.89337563 20.212006 -13.34765625 15.85546875 C-8.95996366 10.51869123 -4.47614988 5.26261359 0 0 Z " fill="#FFB54B" transform="translate(150,181)"/>
<path d="M0 0 C4.35723482 1.58350814 6.82291549 4.97939007 9.6875 8.4375 C10.21786865 9.06712646 10.7482373 9.69675293 11.29467773 10.34545898 C15.14891399 14.93416752 18.94508783 19.57071395 22.72265625 24.22265625 C25.28204054 27.34396367 27.88593791 30.4245003 30.5 33.5 C34.62107792 38.34954051 38.66991483 43.25160964 42.6875 48.1875 C45.26146392 51.31799666 47.87569086 54.41172461 50.5 57.5 C54.61036382 62.33705798 58.65241038 67.22320626 62.65234375 72.15234375 C64.41541215 74.29090758 66.19605278 76.40378218 68.00390625 78.50390625 C68.51179688 79.09558594 69.0196875 79.68726563 69.54296875 80.296875 C70.54006557 81.45545537 71.5412451 82.61053716 72.546875 83.76171875 C76 87.77882119 76 87.77882119 76 90 C66.1 90 56.2 90 46 90 C45.97254026 105.65587359 45.97409887 121.31088265 46.02846622 136.96663761 C46.05278375 144.23627085 46.06412441 151.50548771 46.04467773 158.77514648 C46.02775656 165.11311501 46.0354262 171.45050104 46.07234758 177.78839296 C46.09103832 181.14298606 46.09760245 184.49659458 46.07469368 187.85118294 C46.05527452 191.60101009 46.07931834 195.34823203 46.11352539 199.09790039 C46.0977092 200.20417282 46.08189301 201.31044525 46.06559753 202.45024109 C46.16116787 207.89582909 46.47802725 211.12986417 50.41819763 215.08152771 C51.60261237 216.06591947 52.79565513 217.04009436 54 218 C55.40505189 219.6625614 56.78315229 221.34852043 58.125 223.0625 C62.81900392 228.89785419 67.88463902 234.33116508 73.00390625 239.79296875 C77.36990293 244.45191319 81.53175833 249.27070803 85.6640625 254.13671875 C90.73206052 260.09332689 95.84461332 265.97495812 101.1875 271.6875 C104.75329112 275.49999544 108.17100786 279.36034558 111.4375 283.4375 C116.02312295 289.15073515 120.99745542 294.45201937 126.00390625 299.79296875 C130.46637996 304.55486359 134.71104156 309.48880735 138.9453125 314.453125 C139.47825928 315.07703125 140.01120605 315.7009375 140.56030273 316.34375 C141.62154012 317.58698203 142.68103321 318.83170575 143.73852539 320.078125 C145.8782735 322.58797845 147.99544035 324.99556847 150.36328125 327.296875 C152 329 152 329 152 331 C136.41435249 331.39812512 120.83008886 331.6973708 105.24061108 331.88080692 C98.00087672 331.9682692 90.76431061 332.08735172 83.52661133 332.2824707 C77.21370592 332.45257647 70.90309447 332.56173384 64.58796102 332.59950441 C61.24493144 332.62158292 57.91362217 332.68190789 54.57173729 332.79741096 C34.25339197 333.4715062 34.25339197 333.4715062 28.82542038 329.34803581 C25.23673179 325.37884928 22.94339029 320.96820135 20.89666176 316.0568924 C19.62736839 313.14520373 17.92947896 310.57135597 16.171875 307.93359375 C15.0298485 306.10243582 13.88922945 304.27039938 12.75 302.4375 C11.46357951 300.37367433 10.17712005 298.30987295 8.890625 296.24609375 C7.92479492 294.69510986 7.92479492 294.69510986 6.93945312 293.11279297 C3.79855693 288.07170203 0.64893514 283.0360717 -2.5 278 C-3.75004391 276.00002745 -5.00004387 274.00002742 -6.25 272 C-7.178125 270.515 -7.178125 270.515 -8.125 269 C-13.75 260 -13.75 260 -15.62768555 256.99560547 C-16.86861652 255.01018064 -18.10966331 253.02482821 -19.35083008 251.03955078 C-22.61557541 245.81716058 -25.87786754 240.59325809 -29.13671875 235.3671875 C-29.81476563 234.28050781 -30.4928125 233.19382812 -31.19140625 232.07421875 C-32.48772423 229.99655843 -33.78333796 227.91845848 -35.078125 225.83984375 C-35.66464844 224.90011719 -36.25117188 223.96039063 -36.85546875 222.9921875 C-37.62346802 221.76024658 -37.62346802 221.76024658 -38.40698242 220.50341797 C-40.00874503 217.91263839 -40.00874503 217.91263839 -42.06571484 215.26406479 C-44.25871809 211.56341876 -44.51220947 209.53418424 -44.5415802 205.27154541 C-44.55134799 204.62010614 -44.56111578 203.96866687 -44.57117957 203.29748702 C-44.59870543 201.12806452 -44.59790996 198.95962173 -44.59692383 196.79003906 C-44.61053872 195.22903004 -44.62577333 193.66803443 -44.64250183 192.10705566 C-44.68204547 187.8754229 -44.69559472 183.64409657 -44.70195985 179.41229725 C-44.70703213 176.76516396 -44.71754836 174.11810912 -44.72995567 171.47100067 C-44.77293188 162.2263917 -44.79417053 152.98201044 -44.79614258 143.73730469 C-44.79857525 135.1356427 -44.84954548 126.53518834 -44.92303449 117.93386674 C-44.98399257 110.53657403 -45.01005754 103.13967798 -45.00947779 95.74213576 C-45.00976037 91.32937129 -45.02404316 86.91776422 -45.07383156 82.50525665 C-45.11955663 78.35133565 -45.12163393 74.1995862 -45.09114265 70.04554749 C-45.08725404 68.52744747 -45.0985288 67.00921508 -45.12668228 65.49137115 C-45.26038675 57.79668516 -44.94438865 52.19036336 -39.58598328 46.19989014 C-38.0785904 44.77705181 -36.55260398 43.37336196 -35 42 C-33.52334217 40.24441791 -32.06021312 38.47712289 -30.625 36.6875 C-27.29982021 32.58026574 -23.92340895 28.52513137 -20.5 24.5 C-16.27851984 19.53342308 -12.13087134 14.5122709 -8.015625 9.45703125 C-5.39321207 6.26033022 -2.70787294 3.12446878 0 0 Z " fill="#9166D8" transform="translate(360,181)"/>
<path d="M0 0 C0.88815903 -0.00058411 1.77631805 -0.00116821 2.69139099 -0.00177002 C5.62441209 0.0010147 8.55641446 0.03212506 11.48925781 0.06347656 C13.52377772 0.07093757 15.55830481 0.07663116 17.59283447 0.08062744 C22.94581976 0.09589475 28.29837043 0.13518628 33.65118408 0.17944336 C39.11407593 0.22037225 44.57703806 0.23863338 50.04003906 0.25878906 C60.75767786 0.30167925 71.47499419 0.36994408 82.19238281 0.45410156 C80.92941882 2.67700408 79.66496388 4.89903635 78.3996582 7.12060547 C78.04588356 7.74363052 77.69210892 8.36665558 77.32761383 9.00856018 C74.25951688 14.39093491 70.99405112 19.62680003 67.62988281 24.82910156 C66.40767771 26.73480609 65.18635451 28.64107645 63.96582031 30.54785156 C63.03334473 32.00384766 63.03334473 32.00384766 62.08203125 33.48925781 C58.94173785 38.41635382 55.84722335 43.37181569 52.75488281 48.32910156 C52.13282959 49.32603027 51.51077637 50.32295898 50.86987305 51.35009766 C49.60749969 53.37386895 48.34537434 55.39779496 47.08349609 57.421875 C43.9569486 62.43500692 40.82441861 67.44439743 37.69238281 72.45410156 C33.84707868 78.60547609 30.00269318 84.75741943 26.16113281 90.91113281 C25.49662109 91.97525391 24.83210937 93.039375 24.14746094 94.13574219 C22.89057006 96.14852549 21.63403036 98.16152815 20.37792969 100.17480469 C17.37131926 104.98874072 14.35317549 109.79522622 11.31738281 114.59082031 C10.455 115.95339966 10.455 115.95339966 9.57519531 117.34350586 C8.19238281 119.45410156 8.19238281 119.45410156 7.19238281 120.45410156 C5.62350647 120.55001355 4.05030489 120.57598152 2.47850037 120.57435608 C0.94926941 120.57641808 0.94926941 120.57641808 -0.6108551 120.57852173 C-1.73869919 120.57492645 -2.86654327 120.57133118 -4.02856445 120.56762695 C-5.20889252 120.56777298 -6.38922058 120.56791901 -7.60531616 120.56806946 C-10.85103827 120.56749051 -14.09671774 120.56246143 -17.34243131 120.5554955 C-20.73104751 120.54926118 -24.11966447 120.5486581 -27.50828552 120.54747009 C-33.92917523 120.54435701 -40.350048 120.53614393 -46.77093023 120.5261206 C-54.07915543 120.51495876 -61.38738143 120.50944884 -68.69561303 120.50442517 C-83.7329572 120.49396129 -98.7702855 120.47636229 -113.80761719 120.45410156 C-111.92237731 116.3753574 -109.1897868 113.4314661 -106.12011719 110.20410156 C-105.02176069 109.03158004 -103.92409995 107.85840637 -102.82714844 106.68457031 C-102.30072754 106.12302246 -101.77430664 105.56147461 -101.23193359 104.98291016 C-97.39270848 100.8620278 -93.75360808 96.56690747 -90.10449219 92.27832031 C-84.27947752 85.44083774 -78.36256848 78.72114237 -72.26464844 72.12597656 C-69.63912679 69.2708783 -67.08093879 66.36644912 -64.54199219 63.43457031 C-62.5349718 61.14277001 -60.48358867 58.89413404 -58.43261719 56.64160156 C-55.36014946 53.24326604 -52.42319097 49.77819633 -49.55761719 46.20410156 C-44.89702853 40.43968928 -39.86982438 35.06558203 -34.80371094 29.66113281 C-30.88860958 25.48333767 -27.13512866 21.18290812 -23.41992188 16.82714844 C-22.36284876 15.58782134 -21.30529676 14.34890259 -20.24731445 13.11035156 C-19.18607707 11.86711953 -18.12658398 10.62239581 -17.0690918 9.37597656 C-16.33057983 8.50972656 -16.33057983 8.50972656 -15.57714844 7.62597656 C-15.13991455 7.11131836 -14.70268066 6.59666016 -14.25219727 6.06640625 C-13.77548584 5.5343457 -13.29877441 5.00228516 -12.80761719 4.45410156 C-12.04541115 3.42826965 -12.04541115 3.42826965 -11.26780701 2.38171387 C-7.71460715 -0.40229561 -4.32408904 -0.07433651 0 0 Z " fill="#FF9000" transform="translate(113.8076171875,391.5458984375)"/>
<path d="M0 0 C11.74382273 -0.16233664 23.48737768 -0.28664379 35.23209476 -0.3626852 C40.68597667 -0.39918554 46.13908982 -0.44867798 51.5925293 -0.52807617 C56.85752836 -0.6042493 62.12178902 -0.64601436 67.38729668 -0.6641407 C69.39400289 -0.67705448 71.4006696 -0.70227319 73.40706062 -0.7401104 C76.22285737 -0.79108987 79.03562114 -0.7979173 81.85180664 -0.79467773 C83.09043205 -0.83242813 83.09043205 -0.83242813 84.3540802 -0.87094116 C89.1298281 -0.8116677 91.49271493 -0.01174121 94.93455505 3.38731384 C95.98092103 4.57027238 97.00557558 5.77305553 98 7 C99.08667969 8.28583984 99.08667969 8.28583984 100.1953125 9.59765625 C100.83210938 10.41105469 101.46890625 11.22445313 102.125 12.0625 C106.81900392 17.89785419 111.88463902 23.33116508 117.00390625 28.79296875 C121.36990293 33.45191319 125.53175833 38.27070803 129.6640625 43.13671875 C134.73206052 49.09332689 139.84461332 54.97495812 145.1875 60.6875 C148.75329112 64.49999544 152.17100786 68.36034558 155.4375 72.4375 C160.02312295 78.15073515 164.99745542 83.45201937 170.00390625 88.79296875 C174.46637996 93.55486359 178.71104156 98.48880735 182.9453125 103.453125 C183.47825928 104.07703125 184.01120605 104.7009375 184.56030273 105.34375 C185.62154012 106.58698203 186.68103321 107.83170575 187.73852539 109.078125 C189.8782735 111.58797845 191.99544035 113.99556847 194.36328125 116.296875 C196 118 196 118 196 120 C180.41435249 120.39812512 164.83008886 120.6973708 149.24061108 120.88080692 C142.00087672 120.9682692 134.76431061 121.08735172 127.52661133 121.2824707 C121.21370592 121.45257647 114.90309447 121.56173384 108.58796102 121.59950441 C105.24493144 121.62158292 101.91362217 121.68190789 98.57173729 121.79741096 C78.25339197 122.4715062 78.25339197 122.4715062 72.82542038 118.34803581 C69.23673179 114.37884928 66.94339029 109.96820135 64.89666176 105.0568924 C63.62736839 102.14520373 61.92947896 99.57135597 60.171875 96.93359375 C59.0298485 95.10243582 57.88922945 93.27039938 56.75 91.4375 C55.46357951 89.37367433 54.17712005 87.30987295 52.890625 85.24609375 C52.24673828 84.21210449 51.60285156 83.17811523 50.93945312 82.11279297 C47.79855693 77.07170203 44.64893514 72.0360717 41.5 67 C40.24995609 65.00002745 38.99995613 63.00002742 37.75 61 C37.13125 60.01 36.5125 59.02 35.875 58 C33.0625 53.5 33.0625 53.5 30.25 49 C29.63036377 48.00863037 29.01072754 47.01726074 28.37231445 45.99584961 C27.13109046 44.00979411 25.89004028 42.02362998 24.64916992 40.03735352 C21.39136522 34.82306634 18.12993882 29.61109008 14.86328125 24.40234375 C14.18523437 23.32017578 13.5071875 22.23800781 12.80859375 21.12304688 C11.51414021 19.05724088 10.21863142 16.99209558 8.921875 14.92773438 C8.33535156 13.99123047 7.74882812 13.05472656 7.14453125 12.08984375 C6.63253174 11.27378662 6.12053223 10.45772949 5.59301758 9.61694336 C3.66309594 6.44654794 1.83704079 3.22514254 0 0 Z " fill="#58579F" transform="translate(316,392)"/>
<path d="M0 0 C19.8 0 39.6 0 60 0 C67.86852972 11.24075675 67.86852972 11.24075675 70.76171875 15.99609375 C71.39924072 17.03910645 72.0367627 18.08211914 72.69360352 19.15673828 C73.68058228 20.78071533 73.68058228 20.78071533 74.6875 22.4375 C76.10493207 24.75763739 77.52498678 27.07616443 78.9453125 29.39453125 C79.29459305 29.96516296 79.6438736 30.53579468 80.0037384 31.12371826 C82.98190653 35.98403251 86.00856359 40.81203812 89.0625 45.625 C95.44078379 55.68181085 101.7485944 65.78208215 108.0546875 75.88427734 C110.66474731 80.06469693 113.2768043 84.24386649 115.88916016 88.42285156 C117.1574143 90.4519294 118.42532579 92.48122146 119.69287109 94.51074219 C122.50982656 99.02057593 125.33013751 103.52815045 128.1640625 108.02734375 C128.63739014 108.78015625 129.11071777 109.53296875 129.59838867 110.30859375 C130.46647852 111.6886746 131.33632569 113.06765226 132.20825195 114.4453125 C135 118.88801662 135 118.88801662 135 120 C90.45 120 45.9 120 0 120 C0 80.4 0 40.8 0 0 Z " fill="#DF0016" transform="translate(256,392)"/>
<path d="M0 0 C19.8 0 39.6 0 60 0 C60 39.6 60 79.2 60 120 C15.45 120 -29.1 120 -75 120 C-70.2714582 111.72505185 -65.59770923 103.60467341 -60.4375 95.625 C-59.21529489 93.71929547 -57.9939717 91.81302511 -56.7734375 89.90625 C-56.15178711 88.93558594 -55.53013672 87.96492188 -54.88964844 86.96484375 C-51.74935504 82.03774775 -48.65484054 77.08228587 -45.5625 72.125 C-44.94044678 71.12807129 -44.31839355 70.13114258 -43.67749023 69.10400391 C-42.41511688 67.08023261 -41.15299153 65.0563066 -39.89111328 63.03222656 C-36.76456579 58.01909464 -33.6320358 53.00970413 -30.5 48 C-26.65469587 41.84862548 -22.81031036 35.69668213 -18.96875 29.54296875 C-18.30423828 28.47884766 -17.63972656 27.41472656 -16.95507812 26.31835938 C-15.69818724 24.30557607 -14.44164755 22.29257341 -13.18554688 20.27929688 C-10.17893644 15.46536084 -7.16079268 10.65887534 -4.125 5.86328125 C-3.26261719 4.5007019 -3.26261719 4.5007019 -2.3828125 3.1105957 C-1 1 -1 1 0 0 Z " fill="#FF4546" transform="translate(196,392)"/>
</svg>
